REM MD5 344c936c22eae6366af2ba77ddab2a29
FILE "Rockman 8 - Metal Heroes (Japan).bin" BINARY
  TRACK 01 MODE2/2352
    INDEX 01 00:00:00
  TRACK 02 AUDIO
    INDEX 00 38:39:44
    INDEX 01 38:41:44
  TRACK 03 AUDIO
    INDEX 00 40:32:14
    INDEX 01 40:34:14
  TRACK 04 AUDIO
    INDEX 00 42:52:64
    INDEX 01 42:54:64
REM LEADOUT 46:24:64
